#!OML:ASF E:\basketball\basketball\Project 1\Capture day 1\Session 1\Subject.ASF
:FULLY-SPECIFIED
:DEGREES
245
root 27.0169 15.6279 6.45265 8.32699 58.2343 -3.02476
lowerback 12.0838 1.59348 4.36191
upperback 6.93243 2.85285 5.28218
thorax 0.435276 1.55815 2.72625
lowerneck -6.13405 -5.94589 -10.8034
upperneck -9.9526 -6.49674 14.5741
head -1.00461 -3.07801 6.11053
rclavicle 2.94201e-014 -2.06736e-014
rhumerus 11.8976 38.7284 -81.5554
rradius 34.3816
rwrist -36.2152
rhand -13.6229 42.8158
rfingers 7.12502
rthumb 12.4927 13.2092
lclavicle 2.94201e-014 -2.06736e-014
lhumerus -50.2966 -20.8336 106.03
lradius 57.9962
lwrist 14.1461
lhand -14.9091 31.7596
lfingers 7.12502
lthumb 11.2525 61.4378
rfemur -13.4252 -6.35826 20.032
rtibia 46.0407
rfoot -17.0565 -5.31856
rtoes -32.4449
lfemur -32.5497 5.14384 -20.4137
ltibia 102.172
lfoot -4.04707 -3.77663
ltoes -14.9019
246
root 27.4169 15.7092 6.71941 7.10028 59.1185 -4.08665
lowerback 12.1596 2.10358 5.15654
upperback 6.9574 3.6122 5.18957
thorax 0.466838 1.96253 2.09937
lowerneck -5.41937 -6.79799 -11.3175
upperneck -10.3685 -7.57634 16.1528
head -0.99142 -3.65756 6.67437
rclavicle 1.03368e-014 -1.59028e-015
rhumerus 9.1743 36.4567 -83.2497
rradius 32.0716
rwrist -21.1536
rhand -22.4994 46.5891
rfingers 7.12502
rthumb 3.92655 16.6455
lclavicle 1.03368e-014 -1.59028e-015
lhumerus -49.6992 -21.582 105.961
lradius 60.3616
lwrist 13.8115
lhand -15.0894 31.5745
lfingers 7.12502
lthumb 11.0785 61.2621
rfemur -10.2155 -6.24225 20.4449
rtibia 43.9493
rfoot -14.8668 -3.5974
rtoes -31.7787
lfemur -34.6939 3.94736 -21.0731
ltibia 98.9393
lfoot -4.73148 -4.1788
ltoes -19.1649
247
root 27.8325 15.7837 6.99568 6.56185 59.8677 -4.37069
lowerback 12.0451 2.61531 5.38763
upperback 7.01874 4.29211 4.99201
thorax 0.626624 2.31442 1.69956
lowerneck -4.61977 -7.58207 -11.7452
upperneck -10.8618 -8.57179 17.652
head -1.01008 -4.20824 7.20937
rclavicle 1.43125e-014 -4.6118e-014
rhumerus 6.68911 32.6844 -84.9485
rradius 29.8241
rwrist -2.58812
rhand -31.3482 48.0376
rfingers 7.12502
rthumb -4.61937 18.1079
lclavicle 1.43125e-014 -4.6118e-014
lhumerus -49.0926 -22.128 105.888
lradius 62.6828
lwrist 13.4705
lhand -15.6941 31.0955
lfingers 7.12502
lthumb 10.4952 60.8135
rfemur -6.96428 -6.27747 20.3833
rtibia 41.6886
rfoot -11.9428 -2.26727
rtoes -30.6243
lfemur -36.3605 2.93189 -22.0543
ltibia 95.1945
lfoot -5.25456 -4.43215
ltoes -18.6787
248
root 28.2685 15.8741 7.28122 6.12483 60.9009 -4.49373
lowerback 11.7733 2.97109 5.59928
upperback 7.13574 4.74972 4.77285
thorax 0.937821 2.56043 1.33058
lowerneck -3.64119 -8.22381 -12.0025
upperneck -11.5595 -9.37206 19.0103
head -1.14411 -4.68348 7.7001
rclavicle 2.78299e-014 6.83819e-014
rhumerus 4.50815 27.9354 -86.3696
rradius 28.0821
rwrist 11.8923
rhand -36.6171 49.2747
rfingers 7.12502
rthumb -9.70523 19.5183
lclavicle 2.78299e-014 6.83819e-014
lhumerus -48.3796 -22.3753 105.755
lradius 64.9253
lwrist 12.7976
lhand -16.432 30.3488
lfingers 7.12502
lthumb 9.78334 60.1015
rfemur -3.79076 -6.34511 20.2121
rtibia 39.4368
rfoot -8.65908 -0.539884
rtoes -18.0188
lfemur -37.5532 1.81889 -22.9323
ltibia 90.9317
lfoot -5.56081 -4.62867
ltoes -17.5651
249
root 28.6783 15.9094 7.56394 5.5189 62.0281 -4.87678
lowerback 11.8248 3.28544 5.79052
upperback 6.923 5.19287 4.59382
thorax 0.728084 2.78108 0.980917
lowerneck -3.41366 -9.19138 -12.1016
upperneck -11.0902 -10.7346 19.9608
head -0.756553 -5.38759 7.92307
rclavicle -5.00937e-014 9.54166e-015
rhumerus 2.08217 24.244 -87.5461
rradius 27.5824
rwrist 18.2796
rhand -39.0511 50.5034
rfingers 7.12502
rthumb -12.053 20.8705
lclavicle -5.00937e-014 9.54166e-015
lhumerus -48.2004 -22.2342 105.672
lradius 67.2261
lwrist 11.5043
lhand -16.5636 29.5164
lfingers 7.12502
lthumb 9.65637 59.2751
rfemur -0.54546 -6.49521 20.4263
rtibia 37.3404
rfoot -5.55266 -0.606807
rtoes -12.9162
lfemur -39.0899 0.853161 -23.4505
ltibia 86.6862
lfoot -5.53749 -5.04286
ltoes -15.7326
250
root 29.1061 15.9597 7.87107 5.5416 63.0054 -4.61004
lowerback 11.3662 3.65156 5.56112
upperback 6.99238 5.60301 4.27322
thorax 1.06762 2.99077 0.773477
lowerneck -2.31473 -9.79234 -12.7472
upperneck -11.8421 -11.4525 21.8262
head -0.839214 -5.8395 8.65505
rclavicle 4.85035e-014 0
rhumerus 0.252714 22.8285 -88.3014
rradius 28.1227
rwrist 15.2409
rhand -38.527 52.1756
rfingers 7.12502
rthumb -11.5475 22.5137
lclavicle 4.85035e-014 0
lhumerus -47.7113 -22.2581 105.35
lradius 69.5237
lwrist 10.3696
lhand -16.9102 28.864
lfingers 7.12502
lthumb 9.32197 58.6379
rfemur 2.40199 -6.419 20.3967
rtibia 35.6628
rfoot -4.08482 -0.832258
rtoes -12.409
lfemur -40.0686 0.244517 -24.1687
ltibia 81.8753
lfoot -5.51636 -5.45413
ltoes -14.9202
251
root 29.5284 16.0201 8.19148 5.25787 63.8489 -4.62342
lowerback 11.031 3.97711 5.11962
upperback 7.10166 5.95937 4.07457
thorax 1.34681 3.16564 0.810703
lowerneck -1.41668 -10.2813 -13.1748
upperneck -12.364 -12.0631 23.1567
head -0.883244 -6.22693 9.17748
rclavicle 4.77083e-014 -6.36111e-015
rhumerus -1.66097 22.2183 -89.259
rradius 29.2445
rwrist 8.38239
rhand -37.0528 55.0122
rfingers 7.12502
rthumb -10.1256 25.2758
lclavicle 4.77083e-014 -6.36111e-015
lhumerus -47.2454 -22.2162 105.21
lradius 71.7501
lwrist 10.1537
lhand -18.2606 28.3712
lfingers 7.12502
lthumb 8.01886 58.1991
rfemur 5.18 -5.935 20.7466
rtibia 34.3275
rfoot -2.42033 -1.66648
rtoes -4.60271
lfemur -40.7189 0.0456339 -24.5782
ltibia 76.7303
lfoot -5.11969 -5.89552
ltoes -12.4968
252
root 29.9572 16.0576 8.50588 5.35401 64.7978 -4.54402
lowerback 10.489 4.19893 4.60601
upperback 6.97929 6.16822 3.93202
thorax 1.47484 3.25378 0.963517
lowerneck -0.481057 -10.635 -13.6768
upperneck -12.673 -12.5456 24.2498
head -0.902249 -6.5444 9.64557
rclavicle 4.85035e-014 2.54444e-014
rhumerus -3.98997 20.8915 -90.5152
rradius 30.8434
rwrist 0.867142
rhand -34.6332 58.3658
rfingers 7.12502
rthumb -7.79075 28.5293
lclavicle 4.85035e-014 2.54444e-014
lhumerus -47.1384 -21.8839 105.359
lradius 73.989
lwrist 10.2051
lhand -19.6107 27.7624
lfingers 7.12502
lthumb 6.71561 57.6359
rfemur 7.62551 -5.848 21.0398
rtibia 33.3895
rfoot -2.8347 -4.94088
rtoes -10.109
lfemur -41.4747 -0.29724 -25.0696
ltibia 71.3515
lfoot -4.55307 -5.96276
ltoes -9.56547
253
root 30.3948 16.09 8.82246 4.89354 65.6609 -5.02403
lowerback 10.1371 4.37461 4.26535
upperback 6.7437 6.35321 3.88227
thorax 1.38821 3.32932 1.0976
lowerneck 0.355854 -10.9138 -14.392
upperneck -12.6805 -12.9859 25.2946
head -0.807713 -6.82187 10.1225
rclavicle 4.77083e-015 6.99722e-014
rhumerus -6.11485 18.6112 -91.535
rradius 32.0224
rwrist -3.29067
rhand -31.9957 59.9626
rfingers 7.12502
rthumb -5.24459 30.0475
lclavicle 4.77083e-015 6.99722e-014
lhumerus -47.3368 -21.3151 105.6
lradius 76.3271
lwrist 9.72234
lhand -20.3387 26.9577
lfingers 7.12502
lthumb 6.01287 56.8524
rfemur 10.0776 -5.97307 21.5489
rtibia 32.654
rfoot -2.47599 -8.3779
rtoes -13.5899
lfemur -41.9191 -0.48503 -25.2736
ltibia 65.7291
lfoot -3.89553 -5.66537
ltoes -8.24133
254
root 30.8338 16.1223 9.13529 3.41909 66.5162 -6.68791
lowerback 9.31443 4.47834 4.60069
upperback 6.86523 6.45864 3.84629
thorax 2.00851 3.40396 0.956072
lowerneck 1.0129 -11.1571 -15.1277
upperneck -13.0793 -13.3029 26.3777
head -0.800887 -7.04035 10.6392
rclavicle -9.30312e-014 -1.27222e-014
rhumerus -7.13005 15.4366 -92.2227
rradius 32.1525
rwrist -1.41793
rhand -33.0326 61.4649
rfingers 7.12502
rthumb -6.24572 31.5769
lclavicle -9.30312e-014 -1.27222e-014
lhumerus -46.8488 -21.0589 105.558
lradius 78.5841
lwrist 8.9694
lhand -20.5725 26.6143
lfingers 7.12502
lthumb 5.78712 56.5152
rfemur 12.4285 -6.33704 22.5226
rtibia 31.8797
rfoot -2.29941 -9.66233
rtoes -16.4564
lfemur -42.2772 -0.636128 -24.922
ltibia 59.9117
lfoot -2.70074 -5.15339
ltoes -7.65994
255
root 31.2929 16.1523 9.44722 2.53194 67.1493 -7.9439
lowerback 8.40898 4.56064 4.46821
upperback 6.66015 6.49965 3.89449
thorax 2.26824 3.41571 1.14543
lowerneck 1.81675 -11.2683 -15.9449
upperneck -13.1916 -13.535 27.2275
head -0.768862 -7.21101 11.1041
rclavicle -4.92986e-014 3.18055e-015
rhumerus -8.50807 12.4475 -92.8848
rradius 32.0428
rwrist 1.0369
rhand -34.6074 62.5893
rfingers 7.12502
rthumb -7.76581 32.7519
lclavicle -4.92986e-014 3.18055e-015
lhumerus -46.9243 -20.1628 105.853
lradius 80.9121
lwrist 7.96107
lhand -20.8012 26.5281
lfingers 7.12502
lthumb 5.56629 56.435
rfemur 14.605 -6.87448 23.0204
rtibia 31.1232
rfoot -2.09654 -9.55159
rtoes -17.3068
lfemur -42.4013 -0.672457 -24.8163
ltibia 53.8262
lfoot -1.05644 -4.61536
ltoes -8.66328
256
root 31.7386 16.1782 9.73193 -0.24374 67.641 -10.8211
lowerback 8.0338 4.51329 5.30872
upperback 6.66516 6.46258 3.91871
thorax 2.57523 3.43165 0.75606
lowerneck 2.06077 -11.3615 -16.2149
upperneck -13.149 -13.6886 27.7553
head -0.687648 -7.31114 11.3301
rclavicle 3.97569e-014 -5.725e-014
rhumerus -9.22107 9.41539 -93.5311
rradius 31.6691
rwrist 3.25509
rhand -36.0638 63.5797
rfingers 7.12502
rthumb -9.17133 33.7991
lclavicle 3.97569e-014 -5.725e-014
lhumerus -46.6537 -19.2729 105.833
lradius 83.2512
lwrist 6.76527
lhand -21.3259 25.8986
lfingers 7.12502
lthumb 5.05966 55.8182
rfemur 17.0322 -7.45849 24.0186
rtibia 30.4524
rfoot -1.88887 -8.96658
rtoes -17.1148
lfemur -41.9934 -0.733586 -23.9796
ltibia 47.6696
lfoot 1.13534 -4.19733
ltoes -11.1018
257
root 32.1744 16.1689 10.0112 -2.96133 68.0382 -13.7869
lowerback 8.14647 4.53371 6.0371
upperback 6.10499 6.56198 4.02262
thorax 2.00261 3.48081 0.415645
lowerneck 2.76409 -11.3696 -16.7273
upperneck -12.801 -13.8743 28.0632
head -0.599326 -7.43397 11.5401
rclavicle -2.38542e-014 -1.90833e-014
rhumerus -10.6704 6.22105 -93.879
rradius 31.4925
rwrist 4.85918
rhand -36.7098 63.9285
rfingers 7.12502
rthumb -9.79467 34.1763
lclavicle -2.38542e-014 -1.90833e-014
lhumerus -47.3144 -18.2184 106.349
lradius 85.6403
lwrist 5.51491
lhand -21.7233 25.3737
lfingers 7.12502
lthumb 4.67592 55.3021
rfemur 19.2481 -8.34088 24.9489
rtibia 30.0357
rfoot -1.40058 -8.30844
rtoes -22.1072
lfemur -41.8094 -0.784357 -23.0741
ltibia 41.5965
lfoot 4.06357 -4.11178
ltoes -13.3669
